<?xml version="1.0" ?><!DOCTYPE svg  PUBLIC '-//W3C//DTD SVG 1.1//EN'  'http://www.w3.org/Graphics/SVG/1.1/DTD/svg11.dtd'><svg height="512px" style="enable-background:new 0 0 512 512;" version="1.1" viewBox="0 0 512 512" width="512px" xml:space="preserve" xmlns="http://www.w3.org/2000/svg" xmlns:xlink="http://www.w3.org/1999/xlink"><g id="army_x2C__military_x2C__war_x2C__weapon__x2C_navy_x2C__aviation_x2C____x2C_ship__x2C_"><g><path d="M351.215,255.613l0.504,0.692l-6.728,4.712l-2.572,1.791l-0.055,0.566l-1.798,1.169l-0.145,0.899    l0.27,0.414l-5.811,3.948c0.145,0.692,0.217,1.447,0.217,2.149v0.136h7.95v16.054h7.069h0.486c0.899,0,1.799,0,2.698-0.071    l0.072,0.071l0,0c0.054,0,0.054-0.071,0.125-0.071h0.846l0.054-4.012c0-2.068,1.044-3.939,2.717-4.983v-0.962h2.627    c0.215,0,0.396,0,0.611,0l0,0h1.654c0.216-0.071,0.342-0.278,0.432-0.494l1.044-9.822c0-0.207-0.072-0.342-0.216-0.485    c-0.072-0.072-0.216-0.145-0.414-0.198h0.126l0,0c0.288,0,0.558-0.216,0.558-0.495l0.701-6.025c0-0.136-0.071-0.351-0.215-0.477    c-0.073-0.072-0.198-0.144-0.414-0.144h0.144c0.342-0.073,0.54-0.279,0.54-0.549l0.557-5.262c0.072-0.216,0-0.342-0.125-0.495    c-0.072-0.135-0.216-0.207-0.432-0.207h0.161l0,0c0.271,0,0.54-0.197,0.54-0.485l0.198-1.996h1.601l0.216,1.996    c0,0.288,0.27,0.485,0.558,0.485l5.325,0.072l-5.199-0.072c-0.126,0-0.342,0.072-0.414,0.207    c-0.144,0.153-0.216,0.279-0.216,0.495l0.558,5.262c0,0.27,0.288,0.549,0.558,0.549h7.196h-7.052l0,0    c-0.216,0-0.359,0.071-0.486,0.144c-0.071,0.126-0.144,0.341-0.144,0.477l0.558,6.025c0.072,0.279,0.342,0.549,0.63,0.549h8.706    h-8.58l0,0c-0.198,0-0.342,0.072-0.468,0.217c-0.072,0.071-0.162,0.27-0.162,0.413l0.917,9.696    c0.054,0.342,0.271,0.549,0.612,0.549h12.609c0.126,0,0.342,0,0.396-0.136c0.162-0.144,0.216-0.287,0.216-0.413v-3.399    c0-0.343-0.27-0.558-0.558-0.558h-1.528l0.09-10.164h6.152l-0.054,10.164h-2.375c-0.197,0-0.271,0.071-0.414,0.144    c-0.054,0.144-0.126,0.278-0.126,0.414v3.399c0,0.342,0.27,0.62,0.54,0.62h6.458l0,0c0.126,0,0.27-0.071,0.414-0.207l0,0    c0.125,0.136,0.269,0.207,0.396,0.207h1.402l0,0c0.198,0,0.342-0.071,0.469-0.207c0.071,0.136,0.287,0.207,0.431,0.207h2.969    v0.765h-0.684c1.511,0.746,2.681,2.141,3.111,3.867c10.596-1.942,20.004-4.154,26.372-5.81    c12.25-3.256,42.093-8.869,50.871-10.523l-32.325,41.535h0.071c-0.558,0.827-0.755,1.79-0.611,2.761    c0.342,3.193,3.868,5.604,5.108,6.449l0.899,4.983l-266.089-0.828H40.136v-0.764l-2.914-13.915h0.072    c-1.106-5.684-2.078-16.135-2.356-19.463h3.813l0.072-14.319h2.762l-0.072,14.319h3.885h0.692h0.342v-8.994h0.828v8.994h5.198    V282.2h3.949l-0.072,5.055h0.972l0,0l0,0h13.977l8.032-7.547h13.708c0.134,0,0.476-0.081,0.692-0.27    c0.207-0.216,0.27-0.423,0.27-0.701l0.072-17.791h10.523l-0.072,17.521c0,0.271,0.144,0.468,0.279,0.685    c0.216,0.206,0.414,0.287,0.693,0.287h3.876l0,0c0.486,0,0.908-0.36,0.972-0.773c1.943-10.037,4.776-19.859,4.839-29.896l0,0l0,0    V243.3l0,0v-1.942h1.871c0.072-1.115,0.414-2.141,0.899-3.112l-8.796-5.954l0.287-0.414l-0.135-0.899l-1.808-1.188l-0.063-0.558    l-2.572-1.789l-6.709-4.704l0.485-0.701l6.926,4.496l2.563,1.673l0.477-0.071l3.598,2.491l1.529-0.207l0.414-0.558l0.279,0.216    l0.342-0.494l3.049,2.077l0.279-0.342l0.404,0.278c0,0,0.558-0.908,0.972-1.466c0.423-0.611,0.765-0.198,0.765-0.198    s0,0,0.495,0.352c0.548,0.342,0.135,0.62,0.135,0.62l-0.764,1.098l0.764,0.558l0.063,0.558l-0.351,0.549l1.259,0.837    c1.035-0.558,2.276-0.837,3.526-0.837l0,0c4.425,0,8.032,3.391,8.374,7.69h1.529l-0.081,13.077h3.265l0,0l0,0h0.971l0.063-17.305    h15.785l9.902,17.377h4.704c0.558,0.071,0.962-0.414,0.962-0.972l0.072-12.592h-0.072v-51.087h26.101v47.417l0,0v3.391v0.279    v3.669c0,0.478,0.423,0.972,0.971,0.972h0.342l0.063-7.213h10.739l-0.072,7.213h1.106l0.072-10.667h9.417l-0.072,10.721h1.241    l0.207-27.27h5.819l-0.206,27.27h1.591l0.27-36.336h5.891l-0.279,36.336h1.592l0.216-27.198h5.873l-0.207,27.271h4.982v8.455    c0,0.477,0.414,0.971,0.972,0.971l25.476,0.055l0.685,8.113c0.071,0.548,0.503,0.898,0.971,0.898l10.253,0.072l3.671,8.508v4.786    l-137.689-0.424l0,0c-0.279,0-0.558,0.136-0.764,0.352l-7.96,9.965l2.5,0.063l6.709-8.446l155.946,0.486l0,0    c0.558,0,0.972-0.413,0.972-0.971v-6.639l5.685,0.063v-0.135c0-5.892,4.767-10.739,10.595-10.739c3.256,0,6.098,1.466,8.023,3.741    l2.572-1.727l0.341,0.485l0.271-0.216l0.414,0.558l1.528,0.216l3.598-2.5l0.486,0.072l2.554-1.655L351.215,255.613z" style="fill:#010101;"/></g></g><g id="Layer_1"/></svg>